<svg height="512" viewBox="0 0 512 512" width="512" xmlns="http://www.w3.org/2000/svg" xmlns:xlink="http://www.w3.org/1999/xlink"><linearGradient id="a" gradientUnits="userSpaceOnUse" x1="20.327" x2="509.321" y1="491.673" y2="2.679" data-name="New Gradient Swatch 1"><stop offset="0" stop-color="#003f8a"/><stop offset=".518" stop-color="#00d7df"/><stop offset="1" stop-color="#006df0"/></linearGradient><linearGradient id="b" x1="128.327" x2="617.321" xlink:href="#a" y1="599.673" y2="110.679"/><linearGradient id="c" x1="-71.673" x2="417.321" xlink:href="#a" y1="399.673" y2="-89.321"/><linearGradient id="e" x1="112.327" x2="601.321" xlink:href="#a" y1="583.673" y2="94.679"/><linearGradient id="g" x1="-27.673" x2="461.321" xlink:href="#a" y1="443.673" y2="-45.321"/><linearGradient id="j" x1="80.327" x2="569.321" xlink:href="#a" y1="551.673" y2="62.679"/><linearGradient id="k" x1="44.327" x2="533.321" xlink:href="#a" y1="515.673" y2="26.679"/><linearGradient id="l" x1="28.327" x2="517.321" xlink:href="#a" y1="499.673" y2="10.679"/><linearGradient id="m" x1="-13.673" x2="475.321" xlink:href="#a" y1="457.673" y2="-31.321"/><linearGradient id="n" x1="4.327" x2="493.321" xlink:href="#a" y1="475.673" y2="-13.321"/><linearGradient id="o" x1="62.327" x2="551.321" xlink:href="#a" y1="533.673" y2="44.679"/><g><path d="m372 8h-232a28.031 28.031 0 0 0 -28 28v440a28.031 28.031 0 0 0 28 28h232a28.031 28.031 0 0 0 28-28v-440a28.031 28.031 0 0 0 -28-28zm-78.25 16-4 16h-67.5l-4-16zm90.25 452a12.01 12.01 0 0 1 -12 12h-232a12.01 12.01 0 0 1 -12-12v-440a12.01 12.01 0 0 1 12-12h61.75l6.49 25.94a8 8 0 0 0 7.76 6.06h80a8 8 0 0 0 7.76-6.06l6.49-25.94h61.75a12.01 12.01 0 0 1 12 12z" fill="url(#a)"/><path d="m280 464h-48a8 8 0 0 0 0 16h48a8 8 0 0 0 0-16z" fill="url(#b)"/><path d="m160 184a8 8 0 0 0 8-8v-8h8a8 8 0 0 0 0-16h-16a8 8 0 0 0 -8 8v16a8 8 0 0 0 8 8z" fill="url(#c)"/><path d="m176 344h-8v-8a8 8 0 0 0 -16 0v16a8 8 0 0 0 8 8h16a8 8 0 0 0 0-16z" fill="url(#a)"/><path d="m352 328a8 8 0 0 0 -8 8v8h-8a8 8 0 0 0 0 16h16a8 8 0 0 0 8-8v-16a8 8 0 0 0 -8-8z" fill="url(#e)"/><path d="m352 152h-16a8 8 0 0 0 0 16h8v8a8 8 0 0 0 16 0v-16a8 8 0 0 0 -8-8z" fill="url(#a)"/><path d="m176 184v48a8 8 0 0 0 8 8h48a8 8 0 0 0 8-8v-48a8 8 0 0 0 -8-8h-48a8 8 0 0 0 -8 8zm16 8h32v32h-32z" fill="url(#g)"/><path d="m240 328v-48a8 8 0 0 0 -8-8h-48a8 8 0 0 0 -8 8v48a8 8 0 0 0 8 8h48a8 8 0 0 0 8-8zm-16-8h-32v-32h32z" fill="url(#a)"/><path d="m280 240h48a8 8 0 0 0 8-8v-48a8 8 0 0 0 -8-8h-48a8 8 0 0 0 -8 8v48a8 8 0 0 0 8 8zm8-48h32v32h-32z" fill="url(#a)"/><path d="m336 328v-24a8 8 0 0 0 -8-8h-24a8 8 0 0 0 -8 8v24a8 8 0 0 0 8 8h24a8 8 0 0 0 8-8zm-16-8h-8v-8h8z" fill="url(#j)"/><path d="m280 288h24a8 8 0 0 0 8-8v-24a8 8 0 0 0 -8-8h-24a8 8 0 0 0 -8 8v24a8 8 0 0 0 8 8zm8-24h8v8h-8z" fill="url(#k)"/><path d="m256 336a8 8 0 0 0 8-8v-72a8 8 0 0 0 -8-8h-40a8 8 0 0 0 0 16h32v64a8 8 0 0 0 8 8z" fill="url(#l)"/><path d="m256 200a8 8 0 0 0 8-8v-8a8 8 0 0 0 -16 0v8a8 8 0 0 0 8 8z" fill="url(#m)"/><path d="m256 240a8 8 0 0 0 8-8v-16a8 8 0 0 0 -16 0v16a8 8 0 0 0 8 8z" fill="url(#n)"/><path d="m280 296a8 8 0 0 0 -8 8v24a8 8 0 0 0 16 0v-24a8 8 0 0 0 -8-8z" fill="url(#o)"/><path d="m184 248a8 8 0 0 0 0 16h8a8 8 0 0 0 0-16z" fill="url(#m)"/><path d="m328 248a8 8 0 0 0 -8 8v24a8 8 0 0 0 16 0v-24a8 8 0 0 0 -8-8z" fill="url(#o)"/></g></svg>